<?xml version="1.0" encoding="UTF-8" standalone="no"?>
<svg
   xmlns:dc="http://purl.org/dc/elements/1.1/"
   xmlns:cc="http://creativecommons.org/ns#"
   xmlns:rdf="http://www.w3.org/1999/02/22-rdf-syntax-ns#"
   xmlns:svg="http://www.w3.org/2000/svg"
   xmlns="http://www.w3.org/2000/svg"
   xmlns:sodipodi="http://sodipodi.sourceforge.net/DTD/sodipodi-0.dtd"
   xmlns:inkscape="http://www.inkscape.org/namespaces/inkscape"
   version="1.1"
   id="svg2"
   xml:space="preserve"
   width="340"
   height="306.66666"
   viewBox="0 0 340 306.66666"
   sodipodi:docname="sire-ambalaj-favicon.ai"><metadata
     id="metadata8"><rdf:RDF><cc:Work
         rdf:about=""><dc:format>image/svg+xml</dc:format><dc:type
           rdf:resource="http://purl.org/dc/dcmitype/StillImage" /></cc:Work></rdf:RDF></metadata><defs
     id="defs6"><linearGradient
       x1="0"
       y1="0"
       x2="1"
       y2="0"
       gradientUnits="userSpaceOnUse"
       gradientTransform="matrix(66.11747,45.938763,-45.938763,66.11747,6.6220703,-0.8378906)"
       spreadMethod="pad"
       id="linearGradient38"><stop
         style="stop-opacity:1;stop-color:#000000"
         offset="0"
         id="stop24" /><stop
         style="stop-opacity:1;stop-color:#000000"
         offset="0.0006651"
         id="stop26" /><stop
         style="stop-opacity:1;stop-color:#ab1e2b"
         offset="0.34"
         id="stop28" /><stop
         style="stop-opacity:1;stop-color:#ab1e2b"
         offset="0.34023076"
         id="stop30" /><stop
         style="stop-opacity:1;stop-color:#ee2524"
         offset="0.56"
         id="stop32" /><stop
         style="stop-opacity:1;stop-color:#ee2524"
         offset="0.56595081"
         id="stop34" /><stop
         style="stop-opacity:1;stop-color:#a31e21"
         offset="1"
         id="stop36" /></linearGradient><clipPath
       clipPathUnits="userSpaceOnUse"
       id="clipPath52"><path
         d="m 83.567,128.777 c 0,0 -45.924,-8.675 -54.089,28.065 v 0 c 0,0 -5.103,37.249 34.699,40.311 v 0 H 91.22 v -17.349 l 25.514,43.883 H 57.032 c 0,0 -48.476,-4.082 -54.089,-55.618 v 0 C -2.669,116.53 51.42,102.242 51.42,102.242 v 0 c 0,0 50.516,-1.022 70.417,-2.551 v 0 c 0,0 32.148,-10.205 22.452,-43.373 v 0 c 0,0 -5.103,-25.514 -37.76,-23.474 v 0 H 96.485 L 85.514,6.313 h 32.752 c 0,0 47.965,5.101 54.597,53.576 v 0 c 6.635,48.476 -45.223,67.869 -45.223,67.869 v 0 c 0,0 -5.294,3.57 -13.967,1.019 v 0 l 21.94,38.78 L 215.215,18.559 200.418,6.313 h 52.046 L 135.105,223.687 Z"
         id="path50" /></clipPath></defs><sodipodi:namedview
     pagecolor="#ffffff"
     bordercolor="#666666"
     borderopacity="1"
     objecttolerance="10"
     gridtolerance="10"
     guidetolerance="10"
     inkscape:pageopacity="0"
     inkscape:pageshadow="2"
     inkscape:window-width="640"
     inkscape:window-height="480"
     id="namedview4" /><g
     id="g10"
     inkscape:groupmode="layer"
     inkscape:label="sire-ambalaj-favicon"
     transform="matrix(1.3333333,0,0,-1.3333333,0,306.66667)"><g
       id="g12"><g
         id="g14"><g
           id="g20"><g
             id="g22"><path
               d="m 16.721,6.313 h 48.76 L 77.729,32.844 H 40.193 l -1.532,15.82 z"
               style="fill:url(#linearGradient38);stroke:none"
               id="path40" /></g></g></g></g><g
       id="g42"
       transform="translate(61.1145,89.9964)"><path
         d="m 0,0 -16.839,-30.616 0.003,-0.001 H 15.563 L 31.126,-0.002 31.12,0 Z"
         style="fill:#756d6b;fill-opacity:1;fill-rule:nonzero;stroke:none"
         id="path44" /></g><g
       id="g46"><g
         id="g48"
         clip-path="url(#clipPath52)"><g
           id="g54"
           transform="translate(-62.4976,24.2598)"><path
             d="M 0,0 80.895,269.648 374.791,181.479 293.898,-88.168 Z"
             style="fill:#756d6b;fill-opacity:1;fill-rule:nonzero;stroke:none"
             id="path56" /></g></g></g></g></svg>
